<?xml version="1.0" encoding="UTF-8"?>
<svg xmlns="http://www.w3.org/2000/svg" viewBox="0 0 367.65 110.23">
  <defs>
    <style>
      .cls-1, .cls-2, .cls-3, .cls-4 {
        opacity: .4;
      }

      .cls-1, .cls-3, .cls-4 {
        mix-blend-mode: multiply;
      }

      .cls-2, .cls-5, .cls-6 {
        mix-blend-mode: screen;
      }

      .cls-7 {
        isolation: isolate;
      }

      .cls-8 {
        fill: #231f20;
        font-family: Constantia, Constantia;
        font-size: 60px;
      }

      .cls-9 {
        fill: #f79a73;
      }

      .cls-9, .cls-3, .cls-4, .cls-5, .cls-6, .cls-10, .cls-11, .cls-12 {
        stroke-width: 0px;
      }

      .cls-3, .cls-10 {
        fill: #a91f23;
      }

      .cls-4, .cls-11 {
        fill: #c94741;
      }

      .cls-5 {
        opacity: .3;
      }

      .cls-5, .cls-6 {
        fill: #d6745e;
      }

      .cls-6 {
        opacity: .15;
      }

      .cls-12 {
        fill: #f6d2b8;
      }
    </style>
  </defs>
  <g class="cls-7">
    <g id="Layer_1" data-name="Layer 1">
      <g>
        <path class="cls-10" d="M335.38,47.45s22.25-15.18,28.27-15.71c6.02-.52-7.85,7.85-4.97,9.42,2.88,1.57,8.38,1.31,4.19,6.28-4.19,4.97-7.85,5.5.79,12.83,8.64,7.33,2.09,13.09-8.38,7.07-10.47-6.02-19.9-10.73-19.9-10.73v-9.16Z"/>
        <path class="cls-10" d="M360.26,32.75c.66-.24,1.32-.48,1.98-.71-.59.17-1.25.41-1.98.71Z"/>
        <path class="cls-3" d="M346.67,59.07c-.56-1.11-1.67-2.23-1.11-3.34,1.11-2.78,4.45-3.34,6.12-5.01,3.34-2.23-5.56-2.78-5.56-5.01.18-3.15,1.57-5.53,3.63-7.42-7.26,4.31-14.36,9.15-14.36,9.15v9.16s9.42,4.71,19.9,10.73c8.06,4.64,13.79,2.29,12.06-2.38-6.83,2.29-15.38-.61-20.66-5.9Z"/>
        <path class="cls-3" d="M344.91,41.25c-5.28,3.31-9.53,6.2-9.53,6.2v9.16s3.63,1.82,8.89,4.64c-1.96-6.71-2.03-13.9.64-20Z"/>
        <path class="cls-3" d="M356.62,45.46c-3.53-.53-7.67,1.94-10.41,3.93-.37.27-.02.9.37.63,1.69-1.16,3.47-2.12,5.41-2.8,1.55-.54,3.19-.73,4.67-1.43.13-.06.11-.31-.04-.33Z"/>
        <path class="cls-3" d="M359.02,61.82c-2.64-3.62-7.97-5.45-12.09-6.82-.64-.21-.91.78-.28,1.01,2.39.84,4.71,1.86,6.92,3.11,1.79,1.01,3.36,2.2,5.31,2.88.09.03.19-.09.13-.17Z"/>
        <path class="cls-10" d="M65.05,0h239.98c23.54,0,37.89,29.38,35.33,63.03-2.07,27.09-11.28,46.33-79.33,46.33s-254.63,0-254.63,0L65.05,0Z"/>
        <g>
          <rect class="cls-12" x="154.76" width="44.37" height="110.23"/>
          <ellipse class="cls-9" cx="182.71" cy="51.54" rx="113.52" ry="37.73"/>
          <ellipse class="cls-12" cx="181.77" cy="52.18" rx="99.21" ry="29.6"/>
        </g>
        <path class="cls-3" d="M318.48,3.6c.73,9.18-.07,18.41-3.53,27.65-12.56,32.27-37.69,53.4-68.62,60.08-63.31,13.35-223.04,1.56-230.51.46l-9.42,17.56s188.6,0,254.63,0,77.26-19.23,79.33-46.33c2.03-26.63-6.54-50.59-21.88-59.42Z"/>
        <path class="cls-3" d="M322.82,20.03c-.2-.14-.38.22-.18.36,4.25,3.04,7.85,6.99,10.72,11.71,2.81,4.61,4.21,9.58,5.86,14.81.04.14.26.13.24-.04-.89-11.07-8.68-21.37-16.64-26.84Z"/>
        <path class="cls-3" d="M337.83,49.25c-2.15-.9-4.56-1.13-6.79-1.73-2.26-.61-4.5-1.33-6.71-2.12-.18-.06-.26.26-.08.33,4.17,1.56,9.14,3.76,13.57,3.68.08,0,.09-.12.02-.15Z"/>
        <path class="cls-3" d="M339.19,52.12c-.02-.14-.22-.19-.26-.03-.58,2.4-.67,4.9-1.23,7.31-.65,2.83-1.59,5.58-2.8,8.21-2.27,4.92-5.47,9.3-9.4,13.02-.12.12.06.3.18.18,4.11-3.79,7.46-8.29,9.82-13.36,2.1-4.49,4.25-10.3,3.68-15.34Z"/>
        <path class="cls-3" d="M329.96,14.71c5.82,11.44,8.55,26.74,7.31,43.04-2.07,27.09-11.28,46.33-79.33,46.33H9.23l-2.83,5.27h254.63c68.05,0,77.26-19.23,79.33-46.33,1.45-18.96-2.49-36.56-10.4-48.31Z"/>
        <path class="cls-6" d="M72.84,5.32c1.93,6.55-4.95,24.18-3.44,25.89,1.51,1.71,4.53.36,6.43-1.04,1.9-1.4,3.39-3.41,5.05-5.18,6.92-7.38,16.52-10.36,25.85-11.93,9.33-1.57,18.89-2.01,27.85-5.39,4.12-1.55,1.62-3.84-1.25-3.94-4.43-.16-9.06.81-13.5.98-8.99.34-48.46-4.44-46.98.6Z"/>
        <path class="cls-6" d="M216.24,5.15c-2.23-.04-5.13.48-5.56,3.01-.45,2.6,2.21,4.34,4.41,5.12,27.28,9.65,56.64,5.68,84.9,1.03,2.59-.43,5.84-1.66,5.94-4.67.11-3.37-3.76-4.64-6.68-4.79-27.69-1.4-55.32.84-83.01.3Z"/>
        <ellipse class="cls-5" cx="190.08" cy="4.38" rx="113.25" ry="1.37"/>
        <g>
          <path class="cls-11" d="M63.86,0c24.82,0-26.2,109.35-57.46,109.35C-18.91,109.35,37.2,0,63.86,0Z"/>
          <path class="cls-4" d="M70.43,8.84c-1.03,27.74-38.91,98.35-64.03,98.35-4.19,0-6.15-3-6.38-8-.26,6.29,1.62,10.16,6.38,10.16,25.8,0,65.07-74.5,64.03-100.51Z"/>
          <g class="cls-1">
            <path class="cls-10" d="M11.35,77.52c-1.38,2.64-2.16,5.48-2.43,8.64-.08.98.82,1.32,1.37,1.01,1.12-.64,1.33-1.63,1.16-3.01-.02-.19-.21-.21-.31-.1-.07.08-.15.15-.24.23.26-2.07.79-4.06,1.59-5.9.42-.96-.67-1.76-1.14-.86Z"/>
            <path class="cls-10" d="M29.91,64.84c-1.88.42-3.5,2.39-3.69,4.87-.02.27.04.49.15.64-.52.59-1.07,1.15-1.66,1.64-.76.64-.06,2.21.72,1.58,2.25-1.82,4.07-4.29,5.35-7.29.34-.8-.22-1.59-.87-1.45Z"/>
            <path class="cls-10" d="M41.49,31.38c.48-1.19.4-2.81-.47-3.67-.85-.84-2.04-.53-2.8.34-.51.58-.77,1.33-.91,2.14-.91.7-1.52,1.91-1.62,3.39-.09,1.4,1.57,1.36,1.69,0,.01-.17.05-.32.1-.48.05.03.1.05.16.07.14.5.56.93,1,.73,1.09-.5,2.28-1.12,2.85-2.51Z"/>
            <path class="cls-10" d="M46.52,41.57c-.39.17-.78.41-1.12.7-.16-.03-.34.01-.49.18-1.59,1.68-2.62,4.04-2.9,6.66-.09.89.61,1.52,1.19.89,1.76-1.95,3.19-4.29,4.2-6.98.27-.71-.18-1.76-.87-1.46Z"/>
            <path class="cls-10" d="M59.65,13.06c.29-1.23,1.47-1.74,2.05-2.71.48-.79.74-1.9.49-2.88-.23-.89-.91-1.41-1.63-1.3-.8.13-1.33,1.05-1.7,1.91-.08.06-.16.13-.25.22-.25.25-.25.66-.13.99-.57,1.08-.76,2.47-.42,3.77.25.98,1.35,1.03,1.59,0ZM60.95,8.06c0,.07,0,.14,0,.21-.13-.26-.32-.46-.57-.52.28-.28.53-.33.57.32Z"/>
            <path class="cls-10" d="M63.08,25.91c-.21-1.19-1.3-1.42-2.04-.89-.45.12-.85.5-1.05,1.11-.42,1.29.52,2.61,1.53,2.58,1.09-.03,1.78-1.51,1.55-2.8Z"/>
            <path class="cls-10" d="M41.96,63.25c-1.57,1.31-2.49,3.4-2.53,5.81-.02,1.2,1.15,1.39,1.62.56.64-1.12,1.69-2.42,1.93-3.79.07-.39-.06-.78-.27-1.02,0,0,.02-.02.02-.03.66-.57,0-2.2-.78-1.54Z"/>
            <path class="cls-10" d="M27.45,51.77c.23-.74.14-1.46.07-2.2.53-.95,1.05-1.91,1.54-2.89.37-.74-.45-1.48-.92-.91-.17.2-.34.38-.53.55-.05-.05-.1-.09-.16-.11-.13-.05-.24-.15-.38-.18-.31-.07-.71-.04-.92.31-.43.7-.62,1.45-.59,2.35.01.27.05.53.08.79-.37.58-.74,1.15-1.11,1.73-.3.47-.32,1.04,0,1.52.88,1.3,2.47.48,2.91-.95Z"/>
            <path class="cls-10" d="M24.19,87.76s0-.06-.01-.09c0-.05-.02-.1-.03-.15-.2-.76-.87-1.33-1.62-.86-.75.46-1.87.23-2.42,1.12-.13.21-.23.47-.25.73-.41.58-.71,1.28-.84,2.06-.16.95.64,1.93,1.36,1.34,1.1-.91,2.2-1.82,3.3-2.74.44-.37.58-.9.53-1.4,0,0,0,0,0,0Z"/>
            <path class="cls-10" d="M6.51,95.56c-.75-1.47-2.31.23-1.6,1.3.06.18.12.36.18.54-.38,1.98.52,4.23,2.22,4.56.81.16,1.42-.76,1.05-1.74-.59-1.54-1.11-3.22-1.85-4.65Z"/>
            <path class="cls-10" d="M18.42,62.22c0-.22,0-.44,0-.66-.02-.89-.93-1.21-1.3-.45-.08.17-.17.33-.25.49-.23.21-.4.54-.47.91-.15.29-.31.58-.46.87-.35.68.17,1.31.67,1.25.04.44.11.87.19,1.29.22,1.09,1.35,1.19,1.8.3.64-1.26.53-2.89-.18-3.99Z"/>
            <path class="cls-10" d="M34.39,77.8c-.72-.42-1.98-.45-2.14.85-.01.1,0,.21,0,.31-.04.04-.09.09-.13.15-.17.24-.35.49-.52.73-.47.66-.19,2.02.62,1.93l2.63-.29c.45-.05.91-.48.88-1.13-.05-1.12-.55-2.08-1.35-2.55Z"/>
            <path class="cls-10" d="M53.37,41.7c-.84-.66-2.06-.21-2.58.81-.24.47-.11,1.14.23,1.46.16.15.34.22.51.23.02.64.31,1.24.75,1.58.4.32.89.08,1.13-.38.28-.52.42-1.12.47-1.74.05-.66-.03-1.59-.52-1.97Z"/>
            <path class="cls-10" d="M48.18,15.43c-1.72.81-2.73,3.06-2.19,5.36.05.19.13.33.23.42.11.9.22,1.81.35,2.71.16,1.09,1.62,1.13,1.75,0,.29-2.53.63-5.06.77-7.61.03-.56-.49-1.08-.91-.89Z"/>
            <path class="cls-10" d="M32.23,53.57c.1.76.89,1.08,1.36.71.81-.64,1.35-1.66,1.51-2.87.14-1.05.05-2.67-.76-3.27-.86-.64-1.53.32-1.38,1.38-.7,1.14-.94,2.58-.74,4.04Z"/>
          </g>
          <g class="cls-2">
            <g>
              <path class="cls-12" d="M55.56,22.22c.47-3.12.33-6.13-.38-9.17-.22-.94-1.16-.81-1.57-.24-.84,1.15-.73,2.16-.16,3.35.08.16.26.09.31-.06.04-.1.09-.22.16-.33.39,2.03.5,4.13.33,6.23-.09,1.09,1.15,1.28,1.31.22Z"/>
              <path class="cls-12" d="M40.03,42.78c1.88-.42,3.5-2.39,3.69-4.87.02-.27-.04-.49-.15-.64.52-.59,1.07-1.15,1.66-1.64.76-.64.06-2.21-.72-1.58-2.25,1.82-4.07,4.29-5.35,7.29-.34.8.22,1.59.87,1.45Z"/>
              <path class="cls-12" d="M26.79,86.82c-.48,1.19-.4,2.81.47,3.67.85.84,2.04.53,2.8-.34.51-.58.77-1.33.91-2.14.91-.7,1.52-1.91,1.62-3.39.09-1.4-1.57-1.36-1.69,0-.01.17-.05.32-.1.48-.05-.03-.1-.05-.16-.07-.14-.5-.56-.93-1-.73-1.09.5-2.28,1.12-2.85,2.51Z"/>
              <path class="cls-12" d="M30.38,77.48c.39-.17.78-.41,1.12-.7.16.03.34-.01.49-.18,1.59-1.68,2.62-4.04,2.9-6.66.09-.89-.61-1.52-1.19-.89-1.76,1.95-3.19,4.29-4.2,6.98-.27.71.18,1.76.87,1.46Z"/>
              <path class="cls-12" d="M14.96,96.89c-.29,1.23-1.47,1.74-2.05,2.71-.48.79-.74,1.9-.49,2.88.23.89.91,1.41,1.63,1.3.8-.13,1.33-1.05,1.7-1.91.08-.06.16-.13.25-.22.25-.25.25-.66.13-.99.57-1.08.76-2.47.42-3.77-.25-.98-1.35-1.03-1.59,0ZM13.66,101.89c0-.07,0-.14,0-.21.13.26.32.46.57.52-.28.28-.53.33-.57-.32Z"/>
              <path class="cls-12" d="M20.03,80.56c.21,1.19,1.3,1.42,2.04.89.45-.12.85-.5,1.05-1.11.42-1.29-.52-2.61-1.53-2.58-1.09.03-1.78,1.51-1.55,2.8Z"/>
              <path class="cls-12" d="M20.86,62.46c1.57-1.31,2.49-3.4,2.53-5.81.02-1.2-1.15-1.39-1.62-.56-.64,1.12-1.69,2.42-1.93,3.79-.07.39.06.78.27,1.02,0,0-.02.02-.02.03-.66.57,0,2.2.78,1.54Z"/>
              <path class="cls-12" d="M47.3,52.37c-.23.74-.14,1.46-.07,2.2-.53.95-1.05,1.91-1.54,2.89-.37.74.45,1.48.92.91.17-.2.34-.38.53-.55.05.05.1.09.16.11.13.05.24.15.38.18.31.07.71.04.92-.31.43-.7.62-1.45.59-2.35-.01-.27-.05-.53-.08-.79.37-.58.74-1.15,1.11-1.73.3-.47.32-1.04,0-1.52-.88-1.3-2.47-.48-2.91.95Z"/>
              <path class="cls-12" d="M49.86,32.62s0,.06.01.09c0,.05.02.1.03.15.2.76.87,1.33,1.62.86.75-.46,1.87-.23,2.42-1.12.13-.21.23-.47.25-.73.41-.58.71-1.28.84-2.06.16-.95-.64-1.93-1.36-1.34-1.1.91-2.2,1.82-3.3,2.74-.44.37-.58.9-.53,1.4,0,0,0,0,0,0Z"/>
              <path class="cls-12" d="M65.5,11.73c.75,1.47,2.31-.23,1.6-1.3-.06-.18-.12-.36-.18-.54.38-1.98-.52-4.23-2.22-4.56-.81-.16-1.42.76-1.05,1.74.59,1.54,1.11,3.22,1.85,4.65Z"/>
              <path class="cls-12" d="M56.5,41.23c0,.22,0,.44,0,.66.02.89.93,1.21,1.3.45.08-.17.17-.33.25-.49.23-.21.4-.54.47-.91.15-.29.31-.58.46-.87.35-.68-.17-1.31-.67-1.25-.04-.44-.11-.87-.19-1.29-.22-1.09-1.35-1.19-1.8-.3-.64,1.26-.53,2.89.18,3.99Z"/>
              <path class="cls-12" d="M31.75,41.56c.72.42,1.98.45,2.14-.85.01-.1,0-.21,0-.31.04-.04.09-.09.13-.15.17-.24.35-.49.52-.73.47-.66.19-2.02-.62-1.93l-2.63.29c-.45.05-.91.48-.88,1.13.05,1.12.55,2.08,1.35,2.55Z"/>
              <path class="cls-12" d="M14.9,75.13c.84.66,2.06.21,2.58-.81.24-.47.11-1.14-.23-1.46-.16-.15-.34-.22-.51-.23-.02-.64-.31-1.24-.75-1.58-.4-.32-.89-.08-1.13.38-.28.52-.42,1.12-.47,1.74-.05.66.03,1.59.52,1.97Z"/>
              <path class="cls-12" d="M13.66,92.03c1.72-.81,2.73-3.06,2.19-5.36-.05-.19-.13-.33-.23-.42-.11-.9-.22-1.81-.35-2.71-.16-1.09-1.62-1.13-1.75,0-.29,2.53-.63,5.06-.77,7.61-.03.56.49,1.08.91.89Z"/>
              <path class="cls-12" d="M36.65,58.3c-.1-.76-.89-1.08-1.36-.71-.81.64-1.35,1.66-1.51,2.87-.14,1.05-.05,2.67.76,3.27.86.64,1.53-.32,1.38-1.38.7-1.14.94-2.58.74-4.04Z"/>
            </g>
          </g>
          <path class="cls-5" d="M23.95,41.12c4.1-6.54,8.35-12.47,12.45-17.61,4.07-5.17,8.06-9.54,11.73-12.78,1.83-1.62,3.57-2.97,5.14-4.05,1.58-1.08,3-1.89,4.18-2.49,2.37-1.18,3.77-1.54,3.82-1.38.07.2-1.21.9-3.4,2.34-1.09.73-2.41,1.65-3.88,2.83-1.47,1.18-3.09,2.59-4.8,4.27-3.43,3.35-7.22,7.76-11.15,12.96-3.96,5.17-8.11,11.07-12.15,17.52-8.1,12.91-14.12,25.6-18.05,35.01-3.96,9.4-5.98,15.47-6.34,15.32-.16-.06.19-1.65.95-4.46.39-1.41.93-3.1,1.54-5.07.31-.98.68-2.02,1.06-3.12.38-1.1.78-2.27,1.25-3.48,3.57-9.7,9.44-22.73,17.65-35.81Z"/>
        </g>
      </g>
      <text class="cls-8" transform="translate(117.06 71.97)"><tspan x="0" y="0">DELi</tspan></text>
    </g>
  </g>
</svg>